<svg width="24" height="24" viewBox="0 0 24 24" fill="none" xmlns="http://www.w3.org/2000/svg">
<path d="M17.8032 6.69656L17.8032 6.19656L18.3032 6.19656L18.3032 6.69656L17.8032 6.69656ZM7.55014 17.6567C7.35488 17.852 7.03829 17.852 6.84303 17.6567C6.64777 17.4615 6.64777 17.1449 6.84303 16.9496L7.55014 17.6567ZM9.31791 6.69656L9.31791 6.19656H17.8032L17.8032 6.69656L17.8032 7.19656H9.31791L9.31791 6.69656ZM17.8032 6.69656L18.3032 6.69656L18.3032 15.1818L17.8032 15.1818L17.3032 15.1818L17.3032 6.69656L17.8032 6.69656ZM17.8032 6.69656L18.1567 7.05011L7.55014 17.6567L7.19659 17.3032L6.84303 16.9496L17.4496 6.34301L17.8032 6.69656Z" fill="#2B3767"/>
</svg>
