<svg width="18" height="18" viewBox="0 0 18 18" fill="none" xmlns="http://www.w3.org/2000/svg">
<path d="M16.7058 1.04462L16.7058 0.544625L17.2058 0.544625L17.2058 1.04463L16.7058 1.04462ZM1.14941 17.3081C0.954147 17.5033 0.637564 17.5033 0.442302 17.3081C0.24704 17.1128 0.24704 16.7962 0.442302 16.601L1.14941 17.3081ZM3.97784 1.04462L3.97784 0.544625H16.7058L16.7058 1.04462L16.7058 1.54463H3.97784L3.97784 1.04462ZM16.7058 1.04462L17.2058 1.04463L17.2058 13.7725H16.7058H16.2058L16.2058 1.04462L16.7058 1.04462ZM16.7058 1.04462L17.0593 1.39818L1.14941 17.3081L0.795855 16.9545L0.442302 16.601L16.3522 0.691072L16.7058 1.04462Z" fill="#2B3767"/>
</svg>
