<svg width="13" height="12" viewBox="0 0 13 12" fill="none" xmlns="http://www.w3.org/2000/svg">
<path d="M11.8037 0.696498L11.8037 0.196498L12.3037 0.196498L12.3037 0.696498L11.8037 0.696498ZM1.55063 11.6567C1.35537 11.8519 1.03878 11.8519 0.843521 11.6567C0.648259 11.4614 0.648259 11.1448 0.843521 10.9495L1.55063 11.6567ZM3.31839 0.696498L3.31839 0.196498H11.8037L11.8037 0.696498L11.8037 1.1965H3.31839L3.31839 0.696498ZM11.8037 0.696498L12.3037 0.696498L12.3037 9.18178L11.8037 9.18178L11.3037 9.18178L11.3037 0.696498L11.8037 0.696498ZM11.8037 0.696498L12.1572 1.05005L1.55063 11.6567L1.19707 11.3031L0.843521 10.9495L11.4501 0.342945L11.8037 0.696498Z" fill="#2B3767"/>
</svg>
