<svg width="54" height="54" viewBox="0 0 54 54" fill="none" xmlns="http://www.w3.org/2000/svg">
<path d="M8.95825 0.375H45.2499C47.4711 0.375 49.6013 1.25736 51.1719 2.82798C52.7426 4.3986 53.6249 6.52881 53.6249 8.75V45.0417C53.6249 47.2629 52.7426 49.3931 51.1719 50.9637C49.6013 52.5343 47.4711 53.4167 45.2499 53.4167H8.95825C6.73706 53.4167 4.60685 52.5343 3.03623 50.9637C1.46562 49.3931 0.583252 47.2629 0.583252 45.0417V8.75C0.583252 6.52881 1.46562 4.3986 3.03623 2.82798C4.60685 1.25736 6.73706 0.375 8.95825 0.375ZM8.95825 3.16667C7.47746 3.16667 6.05732 3.75491 5.01024 4.80199C3.96316 5.84907 3.37492 7.26921 3.37492 8.75V41.1054L15.3512 29.1013L22.3303 36.0804L36.2887 22.1221L50.8333 36.6667V8.75C50.8333 7.26921 50.245 5.84907 49.1979 4.80199C48.1509 3.75491 46.7307 3.16667 45.2499 3.16667H8.95825ZM22.3303 40.0446L15.3512 33.0654L3.37492 45.0417C3.37492 46.5225 3.96316 47.9426 5.01024 48.9897C6.05732 50.0368 7.47746 50.625 8.95825 50.625H45.2499C46.7307 50.625 48.1509 50.0368 49.1979 48.9897C50.245 47.9426 50.8333 46.5225 50.8333 45.0417V40.6029L36.2887 26.0863L22.3303 40.0446ZM15.9374 8.75C17.7884 8.75 19.5636 9.4853 20.8724 10.7942C22.1813 12.103 22.9166 13.8782 22.9166 15.7292C22.9166 17.5802 22.1813 19.3553 20.8724 20.6642C19.5636 21.973 17.7884 22.7083 15.9374 22.7083C14.0864 22.7083 12.3113 21.973 11.0024 20.6642C9.69355 19.3553 8.95825 17.5802 8.95825 15.7292C8.95825 13.8782 9.69355 12.103 11.0024 10.7942C12.3113 9.4853 14.0864 8.75 15.9374 8.75ZM15.9374 11.5417C14.8268 11.5417 13.7617 11.9828 12.9764 12.7682C12.1911 13.5535 11.7499 14.6186 11.7499 15.7292C11.7499 16.8398 12.1911 17.9049 12.9764 18.6902C13.7617 19.4755 14.8268 19.9167 15.9374 19.9167C17.048 19.9167 18.1131 19.4755 18.8984 18.6902C19.6837 17.9049 20.1249 16.8398 20.1249 15.7292C20.1249 14.6186 19.6837 13.5535 18.8984 12.7682C18.1131 11.9828 17.048 11.5417 15.9374 11.5417Z" fill="#BDBDBD"/>
</svg>
